# Blender v2.92.0 OBJ File: ''
# www.blender.org
mtllib sphere.mtl
o Sphere
v 0.000000 0.923880 -0.382683
v 0.000000 1.000000 0.000000
v 0.146447 0.923880 -0.353553
v 0.000000 -1.000000 -0.000000
v 0.000000 -0.923880 -0.382683
v 0.146447 -0.923880 -0.353553
v 0.000000 -0.707107 -0.707106
v 0.000000 -0.382684 -0.923880
v 0.353553 -0.382684 -0.853553
v 0.270598 -0.707107 -0.653281
v 0.000001 0.000000 -1.000000
v 0.000000 0.382683 -0.923880
v 0.353553 0.382683 -0.853553
v 0.382683 0.000000 -0.923880
v 0.000000 0.707107 -0.707107
v 0.270598 0.707107 -0.653281
v 0.653281 0.382683 -0.653281
v 0.707107 0.000000 -0.707107
v 0.270598 0.923880 -0.270598
v 0.500000 0.707107 -0.500000
v 0.500000 -0.707107 -0.500000
v 0.270598 -0.923880 -0.270598
v 0.653281 -0.382684 -0.653281
v 0.653281 -0.707107 -0.270598
v 0.353553 -0.923880 -0.146447
v 0.923879 0.000000 -0.382683
v 0.853553 -0.382684 -0.353553
v 0.653281 0.707107 -0.270598
v 0.853553 0.382683 -0.353553
v 0.353553 0.923880 -0.146447
v 0.707107 0.707107 0.000000
v 0.923879 0.382683 0.000000
v 0.382683 0.923880 0.000000
v 0.382683 -0.923880 -0.000000
v 0.923879 -0.382684 -0.000000
v 0.707107 -0.707107 -0.000000
v 1.000000 0.000000 0.000000
v 0.353553 -0.923880 0.146446
v 0.853553 -0.382684 0.353553
v 0.653281 -0.707107 0.270598
v 0.853553 0.382683 0.353553
v 0.923879 -0.000000 0.382683
v 0.353553 0.923880 0.146446
v 0.653281 0.707107 0.270598
v 0.270598 0.923880 0.270598
v 0.500000 0.707107 0.500000
v 0.500000 -0.707107 0.500000
v 0.270598 -0.923880 0.270598
v 0.707106 -0.000000 0.707107
v 0.653281 -0.382684 0.653281
v 0.653281 0.382683 0.653281
v 0.270598 -0.707107 0.653281
v 0.146446 -0.923880 0.353553
v 0.382683 -0.000000 0.923879
v 0.353553 -0.382684 0.853553
v 0.270598 0.707107 0.653281
v 0.353553 0.382683 0.853553
v 0.146446 0.923880 0.353553
v 0.000000 0.923880 0.382683
v 0.000000 -0.923880 0.382683
v 0.000000 -0.382684 0.923879
v 0.000000 -0.707107 0.707106
v 0.000000 0.382683 0.923879
v 0.000000 -0.000000 1.000000
v 0.000000 0.707107 0.707106
v -0.353554 -0.382684 0.853553
v -0.270598 -0.707107 0.653281
v -0.353554 0.382683 0.853553
v -0.382684 -0.000000 0.923879
v -0.146447 0.923880 0.353553
v -0.270598 0.707107 0.653281
v -0.146447 -0.923880 0.353553
v -0.500000 -0.707107 0.499999
v -0.270598 -0.923880 0.270598
v -0.707107 -0.000000 0.707106
v -0.653282 -0.382684 0.653281
v -0.500000 0.707107 0.499999
v -0.653282 0.382683 0.653281
v -0.270598 0.923880 0.270598
v -0.923879 -0.000000 0.382683
v -0.853553 -0.382684 0.353553
v -0.653281 0.707107 0.270597
v -0.853553 0.382683 0.353553
v -0.353553 0.923880 0.146446
v -0.353553 -0.923880 0.146446
v -0.653281 -0.707107 0.270597
v -0.382683 -0.923880 -0.000000
v -0.923879 -0.382684 -0.000001
v -0.707106 -0.707107 -0.000000
v -0.923879 0.382683 -0.000001
v -1.000000 0.000000 -0.000001
v -0.382683 0.923880 0.000000
v -0.707106 0.707107 0.000000
v -0.853553 0.382683 -0.353554
v -0.923879 0.000000 -0.382684
v -0.353553 0.923880 -0.146447
v -0.653281 0.707107 -0.270598
v -0.653281 -0.707107 -0.270598
v -0.353553 -0.923880 -0.146447
v -0.853553 -0.382684 -0.353554
v -0.499999 -0.707107 -0.500000
v -0.270598 -0.923880 -0.270598
v -0.707106 0.000000 -0.707107
v -0.653281 -0.382684 -0.653282
v -0.499999 0.707107 -0.500000
v -0.653281 0.382683 -0.653282
v -0.270598 0.923880 -0.270598
v -0.270598 0.707107 -0.653281
v -0.353553 0.382683 -0.853553
v -0.146446 0.923880 -0.353553
v -0.146446 -0.923880 -0.353553
v -0.353553 -0.382684 -0.853553
v -0.270598 -0.707107 -0.653281
v -0.382683 0.000000 -0.923880
vt 0.750000 0.875000
vt 0.718750 1.000000
vt 0.687500 0.875000
vt 0.718750 0.000000
vt 0.750000 0.125000
vt 0.687500 0.125000
vt 0.750000 0.250000
vt 0.687500 0.375000
vt 0.687500 0.250000
vt 0.750000 0.500000
vt 0.687500 0.625000
vt 0.687500 0.500000
vt 0.687500 0.750000
vt 0.750000 0.750000
vt 0.750000 0.375000
vt 0.750000 0.625000
vt 0.625000 0.500000
vt 0.625000 0.875000
vt 0.625000 0.750000
vt 0.625000 0.125000
vt 0.625000 0.375000
vt 0.625000 0.625000
vt 0.656250 1.000000
vt 0.656250 0.000000
vt 0.625000 0.250000
vt 0.562500 0.250000
vt 0.562500 0.125000
vt 0.562500 0.500000
vt 0.562500 0.375000
vt 0.562500 0.750000
vt 0.562500 0.625000
vt 0.593750 1.000000
vt 0.562500 0.875000
vt 0.593750 0.000000
vt 0.500000 0.750000
vt 0.500000 0.625000
vt 0.531250 1.000000
vt 0.500000 0.875000
vt 0.531250 0.000000
vt 0.500000 0.125000
vt 0.500000 0.250000
vt 0.500000 0.500000
vt 0.500000 0.375000
vt 0.468750 0.000000
vt 0.437500 0.125000
vt 0.437500 0.375000
vt 0.437500 0.250000
vt 0.437500 0.500000
vt 0.437500 0.750000
vt 0.437500 0.625000
vt 0.468750 1.000000
vt 0.437500 0.875000
vt 0.375000 0.875000
vt 0.375000 0.750000
vt 0.375000 0.125000
vt 0.375000 0.375000
vt 0.375000 0.625000
vt 0.406250 1.000000
vt 0.406250 0.000000
vt 0.375000 0.250000
vt 0.375000 0.500000
vt 0.312500 0.250000
vt 0.312500 0.125000
vt 0.312500 0.375000
vt 0.312500 0.750000
vt 0.312500 0.625000
vt 0.343750 1.000000
vt 0.312500 0.875000
vt 0.343750 0.000000
vt 0.312500 0.500000
vt 0.281250 1.000000
vt 0.250000 0.875000
vt 0.281250 0.000000
vt 0.250000 0.125000
vt 0.250000 0.250000
vt 0.250000 0.625000
vt 0.250000 0.500000
vt 0.250000 0.750000
vt 0.250000 0.375000
vt 0.187500 0.250000
vt 0.187500 0.500000
vt 0.187500 0.750000
vt 0.187500 0.125000
vt 0.187500 0.375000
vt 0.187500 0.625000
vt 0.218750 1.000000
vt 0.187500 0.875000
vt 0.218750 0.000000
vt 0.125000 0.250000
vt 0.125000 0.125000
vt 0.125000 0.500000
vt 0.125000 0.375000
vt 0.125000 0.625000
vt 0.156250 1.000000
vt 0.125000 0.875000
vt 0.156250 0.000000
vt 0.125000 0.750000
vt 0.062500 0.500000
vt 0.062500 0.375000
vt 0.062500 0.625000
vt 0.093750 1.000000
vt 0.062500 0.875000
vt 0.093750 0.000000
vt 0.062500 0.125000
vt 0.062500 0.250000
vt 0.062500 0.750000
vt 0.031250 0.000000
vt 0.000000 0.125000
vt 0.000000 0.250000
vt 0.000000 0.625000
vt 0.000000 0.500000
vt 0.000000 0.875000
vt 0.000000 0.750000
vt 0.000000 0.375000
vt 0.031250 1.000000
vt 1.000000 0.625000
vt 0.937500 0.500000
vt 1.000000 0.500000
vt 1.000000 0.750000
vt 0.937500 0.875000
vt 0.937500 0.750000
vt 1.000000 0.125000
vt 0.937500 0.250000
vt 0.937500 0.125000
vt 1.000000 0.375000
vt 0.937500 0.375000
vt 0.937500 0.625000
vt 1.000000 0.875000
vt 0.968750 1.000000
vt 0.968750 0.000000
vt 1.000000 0.250000
vt 0.875000 0.125000
vt 0.875000 0.500000
vt 0.875000 0.375000
vt 0.875000 0.750000
vt 0.875000 0.625000
vt 0.906250 1.000000
vt 0.875000 0.875000
vt 0.906250 0.000000
vt 0.875000 0.250000
vt 0.812500 0.625000
vt 0.843750 1.000000
vt 0.812500 0.875000
vt 0.843750 0.000000
vt 0.812500 0.125000
vt 0.812500 0.250000
vt 0.812500 0.500000
vt 0.812500 0.750000
vt 0.812500 0.375000
vt 0.781250 0.000000
vt 0.781250 1.000000
vn 0.0388 0.9800 -0.1949
vn 0.0388 -0.9800 -0.1949
vn 0.1632 -0.5481 -0.8203
vn 0.1915 0.1915 -0.9626
vn 0.1098 0.8264 -0.5522
vn 0.1098 -0.8264 -0.5522
vn 0.1915 -0.1915 -0.9626
vn 0.1632 0.5481 -0.8203
vn 0.5453 0.1915 -0.8161
vn 0.3128 0.8264 -0.4681
vn 0.3128 -0.8264 -0.4681
vn 0.5453 -0.1915 -0.8161
vn 0.4647 0.5481 -0.6954
vn 0.1104 0.9800 -0.1653
vn 0.1104 -0.9800 -0.1653
vn 0.4647 -0.5481 -0.6954
vn 0.4681 -0.8264 -0.3128
vn 0.8161 -0.1915 -0.5453
vn 0.6954 0.5481 -0.4647
vn 0.1653 0.9800 -0.1104
vn 0.1653 -0.9800 -0.1104
vn 0.6954 -0.5481 -0.4647
vn 0.8161 0.1915 -0.5453
vn 0.4681 0.8264 -0.3128
vn 0.8203 0.5481 -0.1632
vn 0.1949 0.9800 -0.0388
vn 0.1949 -0.9800 -0.0388
vn 0.8203 -0.5481 -0.1632
vn 0.9626 0.1915 -0.1915
vn 0.5522 0.8264 -0.1098
vn 0.5522 -0.8264 -0.1098
vn 0.9626 -0.1915 -0.1915
vn 0.1949 -0.9800 0.0388
vn 0.8203 -0.5481 0.1632
vn 0.9626 0.1915 0.1915
vn 0.5522 0.8264 0.1098
vn 0.5522 -0.8264 0.1098
vn 0.9626 -0.1915 0.1915
vn 0.8203 0.5481 0.1632
vn 0.1949 0.9800 0.0388
vn 0.4681 0.8264 0.3128
vn 0.4681 -0.8264 0.3128
vn 0.8161 -0.1915 0.5453
vn 0.6954 0.5481 0.4647
vn 0.1653 0.9800 0.1104
vn 0.1653 -0.9800 0.1104
vn 0.6954 -0.5481 0.4647
vn 0.8161 0.1915 0.5453
vn 0.3128 -0.8264 0.4681
vn 0.5453 -0.1915 0.8161
vn 0.4647 0.5481 0.6954
vn 0.1104 0.9800 0.1653
vn 0.1104 -0.9800 0.1653
vn 0.4647 -0.5481 0.6954
vn 0.5453 0.1915 0.8161
vn 0.3128 0.8264 0.4681
vn 0.0388 0.9800 0.1949
vn 0.0388 -0.9800 0.1949
vn 0.1632 -0.5481 0.8203
vn 0.1915 0.1915 0.9626
vn 0.1098 0.8264 0.5522
vn 0.1098 -0.8264 0.5522
vn 0.1915 -0.1915 0.9626
vn 0.1632 0.5481 0.8203
vn -0.1632 -0.5481 0.8203
vn -0.1915 0.1915 0.9626
vn -0.1098 0.8264 0.5522
vn -0.1098 -0.8264 0.5522
vn -0.1915 -0.1915 0.9626
vn -0.1632 0.5481 0.8203
vn -0.0388 0.9800 0.1949
vn -0.0388 -0.9800 0.1949
vn -0.3128 -0.8264 0.4681
vn -0.5453 -0.1915 0.8161
vn -0.4647 0.5481 0.6954
vn -0.1104 0.9800 0.1653
vn -0.1104 -0.9800 0.1653
vn -0.4647 -0.5481 0.6954
vn -0.5453 0.1915 0.8161
vn -0.3128 0.8264 0.4681
vn -0.8161 -0.1915 0.5453
vn -0.6954 0.5481 0.4647
vn -0.1653 0.9800 0.1104
vn -0.1653 -0.9800 0.1104
vn -0.6954 -0.5481 0.4647
vn -0.8161 0.1915 0.5453
vn -0.4681 0.8264 0.3128
vn -0.4681 -0.8264 0.3128
vn -0.1949 -0.9800 0.0388
vn -0.8203 -0.5481 0.1632
vn -0.9626 0.1915 0.1915
vn -0.5522 0.8264 0.1098
vn -0.5522 -0.8264 0.1098
vn -0.9626 -0.1915 0.1915
vn -0.8203 0.5481 0.1632
vn -0.1949 0.9800 0.0388
vn -0.9626 0.1915 -0.1915
vn -0.5522 0.8264 -0.1098
vn -0.5522 -0.8264 -0.1098
vn -0.9626 -0.1915 -0.1915
vn -0.8203 0.5481 -0.1632
vn -0.1949 0.9800 -0.0388
vn -0.1949 -0.9800 -0.0388
vn -0.8203 -0.5481 -0.1632
vn -0.4681 -0.8264 -0.3128
vn -0.8161 -0.1915 -0.5453
vn -0.6954 0.5481 -0.4647
vn -0.1653 0.9800 -0.1104
vn -0.1653 -0.9800 -0.1104
vn -0.6954 -0.5481 -0.4647
vn -0.8161 0.1915 -0.5453
vn -0.4681 0.8264 -0.3128
vn -0.4647 0.5481 -0.6954
vn -0.1104 0.9800 -0.1653
vn -0.1104 -0.9800 -0.1653
vn -0.4647 -0.5481 -0.6954
vn -0.5453 0.1915 -0.8161
vn -0.3128 0.8264 -0.4681
vn -0.3128 -0.8264 -0.4681
vn -0.5453 -0.1915 -0.8161
vn -0.0388 -0.9800 -0.1949
vn -0.1632 -0.5481 -0.8203
vn -0.1915 0.1915 -0.9626
vn -0.1098 0.8264 -0.5522
vn -0.1098 -0.8264 -0.5522
vn -0.1915 -0.1915 -0.9626
vn -0.1632 0.5481 -0.8203
vn -0.0388 0.9800 -0.1949
usemtl None
s 1
f 1/1/1 2/2/1 3/3/1
f 4/4/2 5/5/2 6/6/2
f 7/7/3 9/8/3 10/9/3
f 11/10/4 13/11/4 14/12/4
f 1/1/5 16/13/5 15/14/5
f 7/7/6 6/6/6 5/5/6
f 11/10/7 9/8/7 8/15/7
f 15/14/8 13/11/8 12/16/8
f 13/11/9 18/17/9 14/12/9
f 16/13/10 19/18/10 20/19/10
f 10/9/11 22/20/11 6/6/11
f 9/8/12 18/17/12 23/21/12
f 16/13/13 17/22/13 13/11/13
f 3/3/14 2/23/14 19/18/14
f 4/24/15 6/6/15 22/20/15
f 10/9/16 23/21/16 21/25/16
f 22/20/17 24/26/17 25/27/17
f 23/21/18 26/28/18 27/29/18
f 17/22/19 28/30/19 29/31/19
f 19/18/20 2/32/20 30/33/20
f 4/34/21 22/20/21 25/27/21
f 23/21/22 24/26/22 21/25/22
f 17/22/23 26/28/23 18/17/23
f 19/18/24 28/30/24 20/19/24
f 29/31/25 31/35/25 32/36/25
f 30/33/26 2/37/26 33/38/26
f 4/39/27 25/27/27 34/40/27
f 27/29/28 36/41/28 24/26/28
f 26/28/29 32/36/29 37/42/29
f 28/30/30 33/38/30 31/35/30
f 24/26/31 34/40/31 25/27/31
f 26/28/32 35/43/32 27/29/32
f 4/44/33 34/40/33 38/45/33
f 36/41/34 39/46/34 40/47/34
f 32/36/35 42/48/35 37/42/35
f 33/38/36 44/49/36 31/35/36
f 34/40/37 40/47/37 38/45/37
f 35/43/38 42/48/38 39/46/38
f 31/35/39 41/50/39 32/36/39
f 33/38/40 2/51/40 43/52/40
f 44/49/41 45/53/41 46/54/41
f 40/47/42 48/55/42 38/45/42
f 42/48/43 50/56/43 39/46/43
f 44/49/44 51/57/44 41/50/44
f 43/52/45 2/58/45 45/53/45
f 4/59/46 38/45/46 48/55/46
f 40/47/47 50/56/47 47/60/47
f 42/48/48 51/57/48 49/61/48
f 48/55/49 52/62/49 53/63/49
f 49/61/50 55/64/50 50/56/50
f 51/57/51 56/65/51 57/66/51
f 45/53/52 2/67/52 58/68/52
f 4/69/53 48/55/53 53/63/53
f 50/56/54 52/62/54 47/60/54
f 49/61/55 57/66/55 54/70/55
f 45/53/56 56/65/56 46/54/56
f 58/68/57 2/71/57 59/72/57
f 4/73/58 53/63/58 60/74/58
f 55/64/59 62/75/59 52/62/59
f 54/70/60 63/76/60 64/77/60
f 58/68/61 65/78/61 56/65/61
f 53/63/62 62/75/62 60/74/62
f 54/70/63 61/79/63 55/64/63
f 57/66/64 65/78/64 63/76/64
f 61/79/65 67/80/65 62/75/65
f 63/76/66 69/81/66 64/77/66
f 59/72/67 71/82/67 65/78/67
f 62/75/68 72/83/68 60/74/68
f 61/79/69 69/81/69 66/84/69
f 63/76/70 71/82/70 68/85/70
f 59/72/71 2/86/71 70/87/71
f 4/88/72 60/74/72 72/83/72
f 72/83/73 73/89/73 74/90/73
f 66/84/74 75/91/74 76/92/74
f 71/82/75 78/93/75 68/85/75
f 70/87/76 2/94/76 79/95/76
f 4/96/77 72/83/77 74/90/77
f 66/84/78 73/89/78 67/80/78
f 68/85/79 75/91/79 69/81/79
f 70/87/80 77/97/80 71/82/80
f 76/92/81 80/98/81 81/99/81
f 77/97/82 83/100/82 78/93/82
f 79/95/83 2/101/83 84/102/83
f 4/103/84 74/90/84 85/104/84
f 73/89/85 81/99/85 86/105/85
f 78/93/86 80/98/86 75/91/86
f 79/95/87 82/106/87 77/97/87
f 74/90/88 86/105/88 85/104/88
f 4/107/89 85/104/89 87/108/89
f 81/99/90 89/109/90 86/105/90
f 80/98/91 90/110/91 91/111/91
f 82/106/92 92/112/92 93/113/92
f 86/105/93 87/108/93 85/104/93
f 80/98/94 88/114/94 81/99/94
f 83/100/95 93/113/95 90/110/95
f 84/102/96 2/115/96 92/112/96
f 90/116/97 95/117/97 91/118/97
f 93/119/98 96/120/98 97/121/98
f 87/122/99 98/123/99 99/124/99
f 88/125/100 95/117/100 100/126/100
f 90/116/101 97/121/101 94/127/101
f 92/128/102 2/129/102 96/120/102
f 4/130/103 87/122/103 99/124/103
f 88/125/104 98/123/104 89/131/104
f 98/123/105 102/132/105 99/124/105
f 100/126/106 103/133/106 104/134/106
f 94/127/107 105/135/107 106/136/107
f 96/120/108 2/137/108 107/138/108
f 4/139/109 99/124/109 102/132/109
f 100/126/110 101/140/110 98/123/110
f 94/127/111 103/133/111 95/117/111
f 96/120/112 105/135/112 97/121/112
f 105/135/113 109/141/113 106/136/113
f 107/138/114 2/142/114 110/143/114
f 4/144/115 102/132/115 111/145/115
f 104/134/116 113/146/116 101/140/116
f 103/133/117 109/141/117 114/147/117
f 107/138/118 108/148/118 105/135/118
f 102/132/119 113/146/119 111/145/119
f 103/133/120 112/149/120 104/134/120
f 4/150/121 111/145/121 5/5/121
f 112/149/122 7/7/122 113/146/122
f 114/147/123 12/16/123 11/10/123
f 108/148/124 1/1/124 15/14/124
f 111/145/125 7/7/125 5/5/125
f 114/147/126 8/15/126 112/149/126
f 109/141/127 15/14/127 12/16/127
f 110/143/128 2/151/128 1/1/128
f 7/7/3 8/15/3 9/8/3
f 11/10/4 12/16/4 13/11/4
f 1/1/5 3/3/5 16/13/5
f 7/7/6 10/9/6 6/6/6
f 11/10/7 14/12/7 9/8/7
f 15/14/8 16/13/8 13/11/8
f 13/11/9 17/22/9 18/17/9
f 16/13/10 3/3/10 19/18/10
f 10/9/11 21/25/11 22/20/11
f 9/8/12 14/12/12 18/17/12
f 16/13/13 20/19/13 17/22/13
f 10/9/16 9/8/16 23/21/16
f 22/20/17 21/25/17 24/26/17
f 23/21/18 18/17/18 26/28/18
f 17/22/19 20/19/19 28/30/19
f 23/21/22 27/29/22 24/26/22
f 17/22/23 29/31/23 26/28/23
f 19/18/24 30/33/24 28/30/24
f 29/31/25 28/30/25 31/35/25
f 27/29/28 35/43/28 36/41/28
f 26/28/29 29/31/29 32/36/29
f 28/30/30 30/33/30 33/38/30
f 24/26/31 36/41/31 34/40/31
f 26/28/32 37/42/32 35/43/32
f 36/41/34 35/43/34 39/46/34
f 32/36/35 41/50/35 42/48/35
f 33/38/36 43/52/36 44/49/36
f 34/40/37 36/41/37 40/47/37
f 35/43/38 37/42/38 42/48/38
f 31/35/39 44/49/39 41/50/39
f 44/49/41 43/52/41 45/53/41
f 40/47/42 47/60/42 48/55/42
f 42/48/43 49/61/43 50/56/43
f 44/49/44 46/54/44 51/57/44
f 40/47/47 39/46/47 50/56/47
f 42/48/48 41/50/48 51/57/48
f 48/55/49 47/60/49 52/62/49
f 49/61/50 54/70/50 55/64/50
f 51/57/51 46/54/51 56/65/51
f 50/56/54 55/64/54 52/62/54
f 49/61/55 51/57/55 57/66/55
f 45/53/56 58/68/56 56/65/56
f 55/64/59 61/79/59 62/75/59
f 54/70/60 57/66/60 63/76/60
f 58/68/61 59/72/61 65/78/61
f 53/63/62 52/62/62 62/75/62
f 54/70/63 64/77/63 61/79/63
f 57/66/64 56/65/64 65/78/64
f 61/79/65 66/84/65 67/80/65
f 63/76/66 68/85/66 69/81/66
f 59/72/67 70/87/67 71/82/67
f 62/75/68 67/80/68 72/83/68
f 61/79/69 64/77/69 69/81/69
f 63/76/70 65/78/70 71/82/70
f 72/83/73 67/80/73 73/89/73
f 66/84/74 69/81/74 75/91/74
f 71/82/75 77/97/75 78/93/75
f 66/84/78 76/92/78 73/89/78
f 68/85/79 78/93/79 75/91/79
f 70/87/80 79/95/80 77/97/80
f 76/92/81 75/91/81 80/98/81
f 77/97/82 82/106/82 83/100/82
f 73/89/85 76/92/85 81/99/85
f 78/93/86 83/100/86 80/98/86
f 79/95/87 84/102/87 82/106/87
f 74/90/88 73/89/88 86/105/88
f 81/99/90 88/114/90 89/109/90
f 80/98/91 83/100/91 90/110/91
f 82/106/92 84/102/92 92/112/92
f 86/105/93 89/109/93 87/108/93
f 80/98/94 91/111/94 88/114/94
f 83/100/95 82/106/95 93/113/95
f 90/116/97 94/127/97 95/117/97
f 93/119/98 92/128/98 96/120/98
f 87/122/99 89/131/99 98/123/99
f 88/125/100 91/118/100 95/117/100
f 90/116/101 93/119/101 97/121/101
f 88/125/104 100/126/104 98/123/104
f 98/123/105 101/140/105 102/132/105
f 100/126/106 95/117/106 103/133/106
f 94/127/107 97/121/107 105/135/107
f 100/126/110 104/134/110 101/140/110
f 94/127/111 106/136/111 103/133/111
f 96/120/112 107/138/112 105/135/112
f 105/135/113 108/148/113 109/141/113
f 104/134/116 112/149/116 113/146/116
f 103/133/117 106/136/117 109/141/117
f 107/138/118 110/143/118 108/148/118
f 102/132/119 101/140/119 113/146/119
f 103/133/120 114/147/120 112/149/120
f 112/149/122 8/15/122 7/7/122
f 114/147/123 109/141/123 12/16/123
f 108/148/124 110/143/124 1/1/124
f 111/145/125 113/146/125 7/7/125
f 114/147/126 11/10/126 8/15/126
f 109/141/127 108/148/127 15/14/127
