# Blender v2.92.0 OBJ File: ''
# www.blender.org
mtllib sphere-quad.mtl
o Sphere
v 0.000000 0.707107 -0.707107
v 0.000000 0.382683 -0.923880
v 0.000000 -0.382684 -0.923880
v 0.000000 -0.923880 -0.382683
v 0.146447 0.923880 -0.353553
v 0.270598 0.707107 -0.653281
v 0.353553 0.382683 -0.853553
v 0.382683 -0.000000 -0.923880
v 0.353553 -0.382684 -0.853553
v 0.270598 -0.707107 -0.653281
v 0.146447 -0.923880 -0.353553
v 0.270598 0.923880 -0.270598
v 0.500000 0.707107 -0.500000
v 0.653281 0.382683 -0.653281
v 0.707107 -0.000000 -0.707107
v 0.653281 -0.382684 -0.653281
v 0.500000 -0.707107 -0.500000
v 0.270598 -0.923880 -0.270598
v 0.353553 0.923880 -0.146447
v 0.653281 0.707107 -0.270598
v 0.853553 0.382683 -0.353553
v 0.923879 -0.000000 -0.382683
v 0.853553 -0.382684 -0.353553
v 0.653281 -0.707107 -0.270598
v 0.353553 -0.923880 -0.146447
v 0.382683 0.923880 -0.000000
v 0.707107 0.707107 -0.000000
v 0.923879 0.382683 -0.000000
v 1.000000 -0.000000 -0.000000
v 0.923879 -0.382684 -0.000000
v 0.707107 -0.707107 -0.000000
v 0.382683 -0.923880 -0.000000
v 0.353553 0.923880 0.146446
v 0.653281 0.707107 0.270598
v 0.853553 0.382683 0.353553
v 0.923879 -0.000000 0.382683
v 0.853553 -0.382684 0.353553
v 0.653281 -0.707107 0.270598
v 0.353553 -0.923880 0.146446
v 0.270598 0.923880 0.270598
v 0.500000 0.707107 0.500000
v 0.653281 0.382683 0.653281
v 0.707106 -0.000000 0.707107
v 0.653281 -0.382684 0.653281
v 0.500000 -0.707107 0.500000
v 0.270598 -0.923880 0.270598
v 0.146446 0.923880 0.353553
v 0.270598 0.707107 0.653281
v 0.353553 0.382683 0.853553
v 0.382683 -0.000000 0.923879
v 0.353553 -0.382684 0.853553
v 0.270598 -0.707107 0.653281
v 0.146446 -0.923880 0.353553
v -0.000000 0.923880 0.382683
v -0.000000 0.707107 0.707106
v -0.000000 0.382683 0.923879
v -0.000000 -0.000000 1.000000
v -0.000000 -0.382684 0.923879
v -0.000000 -0.707107 0.707106
v -0.000000 -0.923880 0.382683
v -0.146447 0.923880 0.353553
v -0.270598 0.707107 0.653281
v -0.353554 0.382683 0.853553
v -0.382684 -0.000000 0.923879
v -0.353554 -0.382684 0.853553
v -0.270598 -0.707107 0.653281
v -0.146447 -0.923880 0.353553
v -0.270598 0.923880 0.270598
v -0.500000 0.707107 0.499999
v -0.653282 0.382683 0.653281
v -0.707107 -0.000000 0.707106
v -0.653282 -0.382684 0.653281
v -0.500000 -0.707107 0.499999
v -0.270598 -0.923880 0.270598
v -0.353553 0.923880 0.146446
v -0.653281 0.707107 0.270597
v -0.853553 0.382683 0.353553
v -0.923879 -0.000000 0.382683
v -0.853553 -0.382684 0.353553
v -0.653281 -0.707107 0.270597
v -0.353553 -0.923880 0.146446
v -0.382683 0.923880 -0.000000
v -0.707106 0.707107 -0.000000
v -0.923879 0.382683 -0.000001
v -1.000000 -0.000000 -0.000001
v -0.923879 -0.382684 -0.000001
v -0.707106 -0.707107 -0.000000
v -0.382683 -0.923880 -0.000000
v -0.353553 0.923880 -0.146447
v -0.653281 0.707107 -0.270598
v -0.853553 0.382683 -0.353554
v -0.923879 -0.000000 -0.382684
v -0.853553 -0.382684 -0.353554
v -0.653281 -0.707107 -0.270598
v -0.353553 -0.923880 -0.146447
v -0.270598 0.923880 -0.270598
v -0.499999 0.707107 -0.500000
v -0.653281 0.382683 -0.653282
v -0.707106 -0.000000 -0.707107
v -0.653281 -0.382684 -0.653282
v -0.499999 -0.707107 -0.500000
v -0.270598 -0.923880 -0.270598
v -0.146446 0.923880 -0.353553
v -0.270598 0.707107 -0.653281
v -0.353553 0.382683 -0.853553
v -0.382683 -0.000000 -0.923880
v -0.353553 -0.382684 -0.853553
v -0.270598 -0.707107 -0.653281
v -0.146446 -0.923880 -0.353553
v -0.000000 1.000000 -0.000000
v 0.000000 0.923880 -0.382683
v 0.000001 -0.000000 -1.000000
v 0.000000 -0.707107 -0.707106
v 0.000000 -1.000000 -0.000000
vt 0.718750 0.000000
vt 0.750000 0.125000
vt 0.687500 0.125000
vt 0.750000 0.250000
vt 0.750000 0.375000
vt 0.687500 0.375000
vt 0.687500 0.250000
vt 0.750000 0.500000
vt 0.750000 0.625000
vt 0.687500 0.625000
vt 0.687500 0.500000
vt 0.750000 0.750000
vt 0.750000 0.875000
vt 0.687500 0.875000
vt 0.687500 0.750000
vt 0.718750 1.000000
vt 0.625000 0.875000
vt 0.625000 0.750000
vt 0.625000 0.250000
vt 0.625000 0.125000
vt 0.625000 0.500000
vt 0.625000 0.375000
vt 0.625000 0.625000
vt 0.656250 1.000000
vt 0.656250 0.000000
vt 0.562500 0.250000
vt 0.562500 0.125000
vt 0.562500 0.500000
vt 0.562500 0.375000
vt 0.562500 0.750000
vt 0.562500 0.625000
vt 0.593750 1.000000
vt 0.562500 0.875000
vt 0.593750 0.000000
vt 0.531250 1.000000
vt 0.500000 0.875000
vt 0.531250 0.000000
vt 0.500000 0.125000
vt 0.500000 0.375000
vt 0.500000 0.250000
vt 0.500000 0.625000
vt 0.500000 0.500000
vt 0.500000 0.750000
vt 0.437500 0.375000
vt 0.437500 0.250000
vt 0.437500 0.625000
vt 0.437500 0.500000
vt 0.437500 0.875000
vt 0.437500 0.750000
vt 0.437500 0.125000
vt 0.468750 1.000000
vt 0.468750 0.000000
vt 0.375000 0.250000
vt 0.375000 0.125000
vt 0.375000 0.500000
vt 0.375000 0.375000
vt 0.375000 0.750000
vt 0.375000 0.625000
vt 0.406250 1.000000
vt 0.375000 0.875000
vt 0.406250 0.000000
vt 0.312500 0.500000
vt 0.312500 0.375000
vt 0.312500 0.750000
vt 0.312500 0.625000
vt 0.343750 1.000000
vt 0.312500 0.875000
vt 0.343750 0.000000
vt 0.312500 0.125000
vt 0.312500 0.250000
vt 0.281250 0.000000
vt 0.250000 0.125000
vt 0.250000 0.375000
vt 0.250000 0.250000
vt 0.250000 0.625000
vt 0.250000 0.500000
vt 0.250000 0.875000
vt 0.250000 0.750000
vt 0.281250 1.000000
vt 0.187500 0.625000
vt 0.187500 0.500000
vt 0.187500 0.875000
vt 0.187500 0.750000
vt 0.187500 0.250000
vt 0.187500 0.125000
vt 0.187500 0.375000
vt 0.218750 1.000000
vt 0.218750 0.000000
vt 0.125000 0.250000
vt 0.125000 0.125000
vt 0.125000 0.500000
vt 0.125000 0.375000
vt 0.125000 0.750000
vt 0.125000 0.625000
vt 0.156250 1.000000
vt 0.125000 0.875000
vt 0.156250 0.000000
vt 0.062500 0.750000
vt 0.062500 0.625000
vt 0.093750 1.000000
vt 0.062500 0.875000
vt 0.093750 0.000000
vt 0.062500 0.125000
vt 0.062500 0.375000
vt 0.062500 0.250000
vt 0.062500 0.500000
vt 0.031250 0.000000
vt 0.000000 0.125000
vt 0.000000 0.375000
vt 0.000000 0.250000
vt 0.000000 0.625000
vt 0.000000 0.500000
vt 0.000000 0.875000
vt 0.000000 0.750000
vt 0.031250 1.000000
vt 1.000000 0.750000
vt 1.000000 0.875000
vt 0.937500 0.875000
vt 0.937500 0.750000
vt 1.000000 0.125000
vt 1.000000 0.250000
vt 0.937500 0.250000
vt 0.937500 0.125000
vt 1.000000 0.375000
vt 1.000000 0.500000
vt 0.937500 0.500000
vt 0.937500 0.375000
vt 1.000000 0.625000
vt 0.937500 0.625000
vt 0.968750 1.000000
vt 0.968750 0.000000
vt 0.875000 0.250000
vt 0.875000 0.125000
vt 0.875000 0.500000
vt 0.875000 0.375000
vt 0.875000 0.750000
vt 0.875000 0.625000
vt 0.906250 1.000000
vt 0.875000 0.875000
vt 0.906250 0.000000
vt 0.843750 1.000000
vt 0.812500 0.875000
vt 0.843750 0.000000
vt 0.812500 0.125000
vt 0.812500 0.375000
vt 0.812500 0.250000
vt 0.812500 0.625000
vt 0.812500 0.500000
vt 0.812500 0.750000
vt 0.781250 1.000000
vt 0.781250 0.000000
vn 0.0388 -0.9800 -0.1949
vn 0.1632 -0.5481 -0.8203
vn 0.1915 0.1915 -0.9626
vn 0.1098 0.8264 -0.5522
vn 0.1098 -0.8264 -0.5522
vn 0.1915 -0.1915 -0.9626
vn 0.1632 0.5481 -0.8203
vn 0.0388 0.9800 -0.1949
vn 0.3128 0.8264 -0.4681
vn 0.3128 -0.8264 -0.4681
vn 0.5453 -0.1915 -0.8161
vn 0.4647 0.5481 -0.6954
vn 0.1104 0.9800 -0.1653
vn 0.1104 -0.9800 -0.1653
vn 0.4647 -0.5481 -0.6954
vn 0.5453 0.1915 -0.8161
vn 0.4681 -0.8264 -0.3128
vn 0.8161 -0.1915 -0.5453
vn 0.6954 0.5481 -0.4647
vn 0.1653 0.9800 -0.1104
vn 0.1653 -0.9800 -0.1104
vn 0.6954 -0.5481 -0.4647
vn 0.8161 0.1915 -0.5453
vn 0.4681 0.8264 -0.3128
vn 0.1949 0.9800 -0.0388
vn 0.1949 -0.9800 -0.0388
vn 0.8203 -0.5481 -0.1632
vn 0.9626 0.1915 -0.1915
vn 0.5522 0.8264 -0.1098
vn 0.5522 -0.8264 -0.1098
vn 0.9626 -0.1915 -0.1915
vn 0.8203 0.5481 -0.1632
vn 0.8203 -0.5481 0.1632
vn 0.9626 0.1915 0.1915
vn 0.5522 0.8264 0.1098
vn 0.5522 -0.8264 0.1098
vn 0.9626 -0.1915 0.1915
vn 0.8203 0.5481 0.1632
vn 0.1949 0.9800 0.0388
vn 0.1949 -0.9800 0.0388
vn 0.4681 -0.8264 0.3128
vn 0.8161 -0.1915 0.5453
vn 0.6954 0.5481 0.4647
vn 0.1653 0.9800 0.1104
vn 0.1653 -0.9800 0.1104
vn 0.6954 -0.5481 0.4647
vn 0.8161 0.1915 0.5453
vn 0.4681 0.8264 0.3128
vn 0.5453 -0.1915 0.8161
vn 0.4647 0.5481 0.6954
vn 0.1104 0.9800 0.1653
vn 0.1104 -0.9800 0.1653
vn 0.4647 -0.5481 0.6954
vn 0.5453 0.1915 0.8161
vn 0.3128 0.8264 0.4681
vn 0.3128 -0.8264 0.4681
vn 0.0388 -0.9800 0.1949
vn 0.1632 -0.5481 0.8203
vn 0.1915 0.1915 0.9626
vn 0.1098 0.8264 0.5522
vn 0.1098 -0.8264 0.5522
vn 0.1915 -0.1915 0.9626
vn 0.1632 0.5481 0.8203
vn 0.0388 0.9800 0.1949
vn -0.1915 0.1915 0.9626
vn -0.1098 0.8264 0.5522
vn -0.1098 -0.8264 0.5522
vn -0.1915 -0.1915 0.9626
vn -0.1632 0.5481 0.8203
vn -0.0388 0.9800 0.1949
vn -0.0388 -0.9800 0.1949
vn -0.1632 -0.5481 0.8203
vn -0.3128 -0.8264 0.4681
vn -0.5453 -0.1915 0.8161
vn -0.4647 0.5481 0.6954
vn -0.1104 0.9800 0.1653
vn -0.1104 -0.9800 0.1653
vn -0.4647 -0.5481 0.6954
vn -0.5453 0.1915 0.8161
vn -0.3128 0.8264 0.4681
vn -0.6954 0.5481 0.4647
vn -0.1653 0.9800 0.1104
vn -0.1653 -0.9800 0.1104
vn -0.6954 -0.5481 0.4647
vn -0.8161 0.1915 0.5453
vn -0.4681 0.8264 0.3128
vn -0.4681 -0.8264 0.3128
vn -0.8161 -0.1915 0.5453
vn -0.1949 -0.9800 0.0388
vn -0.8203 -0.5481 0.1632
vn -0.9626 0.1915 0.1915
vn -0.5522 0.8264 0.1098
vn -0.5522 -0.8264 0.1098
vn -0.9626 -0.1915 0.1915
vn -0.8203 0.5481 0.1632
vn -0.1949 0.9800 0.0388
vn -0.5522 0.8264 -0.1098
vn -0.5522 -0.8264 -0.1098
vn -0.9626 -0.1915 -0.1915
vn -0.8203 0.5481 -0.1632
vn -0.1949 0.9800 -0.0388
vn -0.1949 -0.9800 -0.0388
vn -0.8203 -0.5481 -0.1632
vn -0.9626 0.1915 -0.1915
vn -0.4681 -0.8264 -0.3128
vn -0.8161 -0.1915 -0.5453
vn -0.6954 0.5481 -0.4647
vn -0.1653 0.9800 -0.1104
vn -0.1653 -0.9800 -0.1104
vn -0.6954 -0.5481 -0.4647
vn -0.8161 0.1915 -0.5453
vn -0.4681 0.8264 -0.3128
vn -0.1104 0.9800 -0.1653
vn -0.1104 -0.9800 -0.1653
vn -0.4647 -0.5481 -0.6954
vn -0.5453 0.1915 -0.8161
vn -0.3128 0.8264 -0.4681
vn -0.3128 -0.8264 -0.4681
vn -0.5453 -0.1915 -0.8161
vn -0.4647 0.5481 -0.6954
vn -0.1632 -0.5481 -0.8203
vn -0.1915 0.1915 -0.9626
vn -0.1098 0.8264 -0.5522
vn -0.1098 -0.8264 -0.5522
vn -0.1915 -0.1915 -0.9626
vn -0.1632 0.5481 -0.8203
vn -0.0388 0.9800 -0.1949
vn -0.0388 -0.9800 -0.1949
usemtl None
s off
f 114/1/1 4/2/1 11/3/1
f 113/4/2 3/5/2 9/6/2 10/7/2
f 112/8/3 2/9/3 7/10/3 8/11/3
f 1/12/4 111/13/4 5/14/4 6/15/4
f 4/2/5 113/4/5 10/7/5 11/3/5
f 3/5/6 112/8/6 8/11/6 9/6/6
f 2/9/7 1/12/7 6/15/7 7/10/7
f 111/13/8 110/16/8 5/14/8
f 6/15/9 5/14/9 12/17/9 13/18/9
f 11/3/10 10/7/10 17/19/10 18/20/10
f 9/6/11 8/11/11 15/21/11 16/22/11
f 7/10/12 6/15/12 13/18/12 14/23/12
f 5/14/13 110/24/13 12/17/13
f 114/25/14 11/3/14 18/20/14
f 10/7/15 9/6/15 16/22/15 17/19/15
f 8/11/16 7/10/16 14/23/16 15/21/16
f 18/20/17 17/19/17 24/26/17 25/27/17
f 16/22/18 15/21/18 22/28/18 23/29/18
f 14/23/19 13/18/19 20/30/19 21/31/19
f 12/17/20 110/32/20 19/33/20
f 114/34/21 18/20/21 25/27/21
f 17/19/22 16/22/22 23/29/22 24/26/22
f 15/21/23 14/23/23 21/31/23 22/28/23
f 13/18/24 12/17/24 19/33/24 20/30/24
f 19/33/25 110/35/25 26/36/25
f 114/37/26 25/27/26 32/38/26
f 24/26/27 23/29/27 30/39/27 31/40/27
f 22/28/28 21/31/28 28/41/28 29/42/28
f 20/30/29 19/33/29 26/36/29 27/43/29
f 25/27/30 24/26/30 31/40/30 32/38/30
f 23/29/31 22/28/31 29/42/31 30/39/31
f 21/31/32 20/30/32 27/43/32 28/41/32
f 31/40/33 30/39/33 37/44/33 38/45/33
f 29/42/34 28/41/34 35/46/34 36/47/34
f 27/43/35 26/36/35 33/48/35 34/49/35
f 32/38/36 31/40/36 38/45/36 39/50/36
f 30/39/37 29/42/37 36/47/37 37/44/37
f 28/41/38 27/43/38 34/49/38 35/46/38
f 26/36/39 110/51/39 33/48/39
f 114/52/40 32/38/40 39/50/40
f 39/50/41 38/45/41 45/53/41 46/54/41
f 37/44/42 36/47/42 43/55/42 44/56/42
f 35/46/43 34/49/43 41/57/43 42/58/43
f 33/48/44 110/59/44 40/60/44
f 114/61/45 39/50/45 46/54/45
f 38/45/46 37/44/46 44/56/46 45/53/46
f 36/47/47 35/46/47 42/58/47 43/55/47
f 34/49/48 33/48/48 40/60/48 41/57/48
f 44/56/49 43/55/49 50/62/49 51/63/49
f 42/58/50 41/57/50 48/64/50 49/65/50
f 40/60/51 110/66/51 47/67/51
f 114/68/52 46/54/52 53/69/52
f 45/53/53 44/56/53 51/63/53 52/70/53
f 43/55/54 42/58/54 49/65/54 50/62/54
f 41/57/55 40/60/55 47/67/55 48/64/55
f 46/54/56 45/53/56 52/70/56 53/69/56
f 114/71/57 53/69/57 60/72/57
f 52/70/58 51/63/58 58/73/58 59/74/58
f 50/62/59 49/65/59 56/75/59 57/76/59
f 48/64/60 47/67/60 54/77/60 55/78/60
f 53/69/61 52/70/61 59/74/61 60/72/61
f 51/63/62 50/62/62 57/76/62 58/73/62
f 49/65/63 48/64/63 55/78/63 56/75/63
f 47/67/64 110/79/64 54/77/64
f 57/76/65 56/75/65 63/80/65 64/81/65
f 55/78/66 54/77/66 61/82/66 62/83/66
f 60/72/67 59/74/67 66/84/67 67/85/67
f 58/73/68 57/76/68 64/81/68 65/86/68
f 56/75/69 55/78/69 62/83/69 63/80/69
f 54/77/70 110/87/70 61/82/70
f 114/88/71 60/72/71 67/85/71
f 59/74/72 58/73/72 65/86/72 66/84/72
f 67/85/73 66/84/73 73/89/73 74/90/73
f 65/86/74 64/81/74 71/91/74 72/92/74
f 63/80/75 62/83/75 69/93/75 70/94/75
f 61/82/76 110/95/76 68/96/76
f 114/97/77 67/85/77 74/90/77
f 66/84/78 65/86/78 72/92/78 73/89/78
f 64/81/79 63/80/79 70/94/79 71/91/79
f 62/83/80 61/82/80 68/96/80 69/93/80
f 70/94/81 69/93/81 76/98/81 77/99/81
f 68/96/82 110/100/82 75/101/82
f 114/102/83 74/90/83 81/103/83
f 73/89/84 72/92/84 79/104/84 80/105/84
f 71/91/85 70/94/85 77/99/85 78/106/85
f 69/93/86 68/96/86 75/101/86 76/98/86
f 74/90/87 73/89/87 80/105/87 81/103/87
f 72/92/88 71/91/88 78/106/88 79/104/88
f 114/107/89 81/103/89 88/108/89
f 80/105/90 79/104/90 86/109/90 87/110/90
f 78/106/91 77/99/91 84/111/91 85/112/91
f 76/98/92 75/101/92 82/113/92 83/114/92
f 81/103/93 80/105/93 87/110/93 88/108/93
f 79/104/94 78/106/94 85/112/94 86/109/94
f 77/99/95 76/98/95 83/114/95 84/111/95
f 75/101/96 110/115/96 82/113/96
f 83/116/97 82/117/97 89/118/97 90/119/97
f 88/120/98 87/121/98 94/122/98 95/123/98
f 86/124/99 85/125/99 92/126/99 93/127/99
f 84/128/100 83/116/100 90/119/100 91/129/100
f 82/117/101 110/130/101 89/118/101
f 114/131/102 88/120/102 95/123/102
f 87/121/103 86/124/103 93/127/103 94/122/103
f 85/125/104 84/128/104 91/129/104 92/126/104
f 95/123/105 94/122/105 101/132/105 102/133/105
f 93/127/106 92/126/106 99/134/106 100/135/106
f 91/129/107 90/119/107 97/136/107 98/137/107
f 89/118/108 110/138/108 96/139/108
f 114/140/109 95/123/109 102/133/109
f 94/122/110 93/127/110 100/135/110 101/132/110
f 92/126/111 91/129/111 98/137/111 99/134/111
f 90/119/112 89/118/112 96/139/112 97/136/112
f 96/139/113 110/141/113 103/142/113
f 114/143/114 102/133/114 109/144/114
f 101/132/115 100/135/115 107/145/115 108/146/115
f 99/134/116 98/137/116 105/147/116 106/148/116
f 97/136/117 96/139/117 103/142/117 104/149/117
f 102/133/118 101/132/118 108/146/118 109/144/118
f 100/135/119 99/134/119 106/148/119 107/145/119
f 98/137/120 97/136/120 104/149/120 105/147/120
f 108/146/121 107/145/121 3/5/121 113/4/121
f 106/148/122 105/147/122 2/9/122 112/8/122
f 104/149/123 103/142/123 111/13/123 1/12/123
f 109/144/124 108/146/124 113/4/124 4/2/124
f 107/145/125 106/148/125 112/8/125 3/5/125
f 105/147/126 104/149/126 1/12/126 2/9/126
f 103/142/127 110/150/127 111/13/127
f 114/151/128 109/144/128 4/2/128
